# xmcd CD database file
#
# Track frame offsets:
#	150
#	27575
#	65668
#	98248
#	134344
#	160458
#	185391
#	216953
#
# Disc length: 3317 seconds
#
# Revision: 0
# Processed by: cddbd v1.5.2PL0 Copyright (c) Steve Scherf et al.
# Submitted via: CDex 1.75
#
DISCID=770cf308
DTITLE=Sander Baan Quartet - Country Music
DYEAR=2014
DGENRE=Jazz
TTITLE0=In the Moment
TTITLE1=Dreamlike
TTITLE2=Sander Baan Quartet - Charybdis
TTITLE3=Kuschelrock
TTITLE4=Sander Baan Quartet - Over and Over (Again)
TTITLE5=Catlike
TTITLE6=Sander Baan Quartet - As the Storm Passes by
TTITLE7=Singularity
EXTD=YEAR: 2014
EXTT0=
EXTT1=
EXTT2=
EXTT3=
EXTT4=
EXTT5=
EXTT6=
EXTT7=
PLAYORDER=
